<svg width="219" height="40" viewBox="0 0 219 40" fill="none" xmlns="http://www.w3.org/2000/svg">
<path d="M19.9992 39.9985C31.0445 39.9985 39.9985 31.0445 39.9985 19.9992C39.9985 8.95397 31.0445 0 19.9992 0C8.95397 0 0 8.95397 0 19.9992C0 31.0445 8.95397 39.9985 19.9992 39.9985Z" fill="url(#paint0_linear_127_5185)"/>
<path d="M37.3163 18.4157C37.2382 18.0624 37.1496 17.7132 37.0505 17.368L32.8249 16.7999L34.3423 15.0525L33.3711 14.5669L26.6339 18.6942H26.6606L24.5362 20.0295H24.4373L26.3037 15.5575L32.9444 13.353V12.564L29.4241 12.9281C29.6264 12.341 29.8287 11.7543 30.031 11.168L29.1206 11.2287L27.846 13.1709L25.054 13.5351L21.6787 18.4084C21.5678 17.7694 21.4569 17.1303 21.3461 16.491L23.4152 12.2605L22.8082 11.7142L20.9327 14.1075L20.6232 12.3212H18.9237L18.3538 18.4084L16.071 15.0525L11.8223 13.7779L11.276 14.5669L14.675 16.8734C14.9829 17.9254 15.2905 18.9775 15.5976 20.0295H15.4993L13.3749 18.6942H13.4016L9.82056 16.4485H9.80599L6.17882 14.1421L5.45047 15.1739L7.21064 16.7999L2.29429 17.2982C2.28211 17.4801 2.28211 17.6626 2.29429 17.8445C2.30492 18.0074 2.32518 18.1696 2.35498 18.3301L9.23546 18.5856L14.4984 23.2215C13.3674 28.1257 12.2371 33.0302 11.1073 37.9348C11.5838 38.1569 12.2217 38.4374 12.9889 38.7238C13.8026 39.0342 14.6335 39.2977 15.4774 39.5129C17.4306 39.9948 19.0372 39.9985 20.0162 39.9985C21.5117 40.0151 23.0038 39.8521 24.4604 39.5129C25.3254 39.3022 26.1768 39.0387 27.0096 38.7238C27.7707 38.4416 28.4056 38.1624 28.8912 37.9348L25.5353 23.2215L30.7976 18.5856L37.3163 18.4157Z" fill="url(#paint1_linear_127_5185)"/>
<path d="M6.20639 11.2897C7.16175 11.2897 7.93622 10.5153 7.93622 9.55991C7.93622 8.60455 7.16175 7.83008 6.20639 7.83008C5.25103 7.83008 4.47656 8.60455 4.47656 9.55991C4.47656 10.5153 5.25103 11.2897 6.20639 11.2897Z" fill="url(#paint2_linear_127_5185)"/>
<path d="M9.5141 13.3534C10.0504 13.3534 10.4852 12.9186 10.4852 12.3823C10.4852 11.8459 10.0504 11.4111 9.5141 11.4111C8.97776 11.4111 8.54297 11.8459 8.54297 12.3823C8.54297 12.9186 8.97776 13.3534 9.5141 13.3534Z" fill="url(#paint3_linear_127_5185)"/>
<path d="M14.9182 13.232C15.8568 13.232 16.6177 12.4711 16.6177 11.5325C16.6177 10.5939 15.8568 9.83301 14.9182 9.83301C13.9796 9.83301 13.2188 10.5939 13.2188 11.5325C13.2188 12.4711 13.9796 13.232 14.9182 13.232Z" fill="url(#paint4_linear_127_5185)"/>
<path d="M3.87197 14.6883C4.50887 14.6883 5.02519 14.172 5.02519 13.5351C5.02519 12.8981 4.50887 12.3818 3.87197 12.3818C3.23506 12.3818 2.71875 12.8981 2.71875 13.5351C2.71875 14.172 3.23506 14.6883 3.87197 14.6883Z" fill="url(#paint5_linear_127_5185)"/>
<path d="M18.0426 3.70244C19.065 3.70244 19.8938 2.87362 19.8938 1.85122C19.8938 0.82882 19.065 0 18.0426 0C17.0202 0 16.1914 0.82882 16.1914 1.85122C16.1914 2.87362 17.0202 3.70244 18.0426 3.70244Z" fill="url(#paint6_linear_127_5185)"/>
<path d="M26.4206 11.5932C27.2419 11.5932 27.9077 10.9275 27.9077 10.1062C27.9077 9.28491 27.2419 8.61914 26.4206 8.61914C25.5994 8.61914 24.9336 9.28491 24.9336 10.1062C24.9336 10.9275 25.5994 11.5932 26.4206 11.5932Z" fill="url(#paint7_linear_127_5185)"/>
<path d="M35.5261 14.2632C36.3474 14.2632 37.0132 13.5974 37.0132 12.7761C37.0132 11.9548 36.3474 11.2891 35.5261 11.2891C34.7048 11.2891 34.0391 11.9548 34.0391 12.7761C34.0391 13.5974 34.7048 14.2632 35.5261 14.2632Z" fill="url(#paint8_linear_127_5185)"/>
<path d="M19.3782 10.318C20.7694 10.318 21.8971 9.19028 21.8971 7.79915C21.8971 6.40801 20.7694 5.28027 19.3782 5.28027C17.9871 5.28027 16.8594 6.40801 16.8594 7.79915C16.8594 9.19028 17.9871 10.318 19.3782 10.318Z" fill="url(#paint9_linear_127_5185)"/>
<path d="M11.8229 9.4076C13.7337 9.4076 15.2826 7.85865 15.2826 5.94794C15.2826 4.03722 13.7337 2.48828 11.8229 2.48828C9.91222 2.48828 8.36328 4.03722 8.36328 5.94794C8.36328 7.85865 9.91222 9.4076 11.8229 9.4076Z" fill="url(#paint10_linear_127_5185)"/>
<path d="M25.085 7.16212C26.8448 7.16212 28.2715 5.73546 28.2715 3.97559C28.2715 2.21572 26.8448 0.789062 25.085 0.789062C23.3251 0.789062 21.8984 2.21572 21.8984 3.97559C21.8984 5.73546 23.3251 7.16212 25.085 7.16212Z" fill="url(#paint11_linear_127_5185)"/>
<path d="M31.8215 10.3177C33.1791 10.3177 34.2796 9.21716 34.2796 7.85954C34.2796 6.50193 33.1791 5.40137 31.8215 5.40137C30.4638 5.40137 29.3633 6.50193 29.3633 7.85954C29.3633 9.21716 30.4638 10.3177 31.8215 10.3177Z" fill="url(#paint12_linear_127_5185)"/>
<path d="M84.0457 30.1628C89.7276 30.1628 94.3337 25.5567 94.3337 19.8748C94.3337 14.193 89.7276 9.58691 84.0457 9.58691C78.3639 9.58691 73.7578 14.193 73.7578 19.8748C73.7578 25.5567 78.3639 30.1628 84.0457 30.1628Z" fill="url(#paint13_linear_127_5185)"/>
<path d="M137.397 30.1628C143.079 30.1628 147.685 25.5567 147.685 19.8748C147.685 14.193 143.079 9.58691 137.397 9.58691C131.715 9.58691 127.109 14.193 127.109 19.8748C127.109 25.5567 131.715 30.1628 137.397 30.1628Z" fill="url(#paint14_linear_127_5185)"/>
<path d="M59.5184 32.3553C57.4038 32.3553 55.6203 32.0137 54.1681 31.3302C52.7158 30.6468 51.6106 29.723 50.8523 28.5588C50.0944 27.3947 49.7152 26.0545 49.7148 24.5383H54.8412C54.8392 25.1303 55.0119 25.7096 55.3377 26.2038C55.6683 26.7169 56.1755 27.128 56.8593 27.4372C57.5432 27.7463 58.4295 27.9013 59.5184 27.9021C60.5005 27.9021 61.3227 27.7738 61.9851 27.5173C62.6475 27.2608 63.1494 26.9031 63.491 26.4442C63.8324 25.9867 64.0127 25.429 64.0038 24.8582C64.0038 24.1112 63.6834 23.5187 63.0424 23.0804C62.4015 22.6422 61.3656 22.359 59.9348 22.2307L58.1746 22.1026C55.8463 21.8894 53.9882 21.1578 52.6003 19.9079C51.2124 18.6579 50.5176 16.9979 50.516 14.9278C50.516 13.4112 50.8737 12.1083 51.5891 11.019C52.3045 9.9297 53.3032 9.09148 54.5851 8.50435C55.8666 7.91682 57.384 7.62305 59.1373 7.62305C60.9739 7.62305 62.549 7.94354 63.8624 8.58449C65.1759 9.22543 66.185 10.117 66.8899 11.2593C67.5952 12.402 67.9476 13.7315 67.9472 15.2477H62.8215C62.8265 14.6915 62.6828 14.1442 62.4051 13.6623C62.1271 13.1816 61.7158 12.7972 61.1712 12.5091C60.6265 12.221 59.9486 12.0769 59.1373 12.0769C58.3684 12.0769 57.7222 12.1997 57.1986 12.4453C56.675 12.691 56.2843 13.0329 56.0266 13.4711C55.769 13.913 55.6361 14.4164 55.6418 14.9278C55.6418 15.5683 55.8769 16.1348 56.3471 16.6273C56.8173 17.1197 57.5861 17.408 58.6535 17.4922L60.4477 17.6524C62.1561 17.8021 63.6617 18.1706 64.9647 18.7577C66.2676 19.3448 67.2875 20.1458 68.0243 21.1606C68.7612 22.1755 69.1296 23.4096 69.1296 24.8631C69.1296 26.3602 68.7397 27.6739 67.96 28.8041C67.1802 29.9342 66.075 30.8098 64.6442 31.431C63.2138 32.0468 61.5052 32.3549 59.5184 32.3553Z" fill="url(#paint15_linear_127_5185)"/>
<path d="M83.9287 32.3556C81.8149 32.3556 79.9737 31.9817 78.4054 31.2339C76.837 30.4862 75.5395 29.5092 74.5129 28.3029C73.5179 27.1475 72.7368 25.8238 72.2065 24.3941C71.6938 22.9957 71.4375 21.6341 71.4375 20.3093V19.6046C71.4406 18.1329 71.7064 16.6735 72.2223 15.2952C72.7514 13.8651 73.557 12.5532 74.5931 11.4344C75.6504 10.2812 76.9531 9.35736 78.5013 8.663C80.0494 7.96864 81.8596 7.62167 83.9317 7.62207C85.982 7.62207 87.7869 7.96904 89.3464 8.663C90.9059 9.35695 92.2086 10.2808 93.2546 11.4344C94.2832 12.5588 95.0879 13.8692 95.6254 15.2952C96.1511 16.6714 96.4225 18.1315 96.4265 19.6046V20.3093C96.4265 21.6337 96.1702 22.9953 95.6575 24.3941C95.127 25.8237 94.346 27.1473 93.3511 28.3029C92.3253 29.5096 91.0277 30.4866 89.4581 31.2339C87.8885 31.9813 86.0453 32.3552 83.9287 32.3556ZM83.9287 27.4216C85.039 27.4216 86.0377 27.2294 86.9246 26.845C87.7838 26.4797 88.5542 25.9333 89.1831 25.2433C89.8068 24.5523 90.2909 23.7473 90.6089 22.8725C90.9444 21.9484 91.1126 20.9719 91.1053 19.9888C91.1053 18.8999 90.9399 17.9015 90.6089 16.9935C90.2966 16.1172 89.8055 15.3155 89.1667 14.6391C88.5267 13.9705 87.7513 13.4462 86.8925 13.1011C86.0055 12.7369 85.0176 12.5548 83.9287 12.5548C82.8179 12.5548 81.8248 12.7369 80.9491 13.1011C80.0963 13.4488 79.3266 13.973 78.6906 14.6391C78.0534 15.3129 77.5674 16.115 77.2649 16.9917C76.9452 17.8997 76.7852 18.8981 76.7848 19.987C76.7776 20.9687 76.94 21.9443 77.2649 22.8707C77.5744 23.7495 78.0595 24.5561 78.6906 25.2414C79.3235 25.9271 80.0928 26.4727 80.9491 26.8432C81.8252 27.2288 82.8184 27.4216 83.9287 27.4216Z" fill="url(#paint16_linear_127_5185)"/>
<path d="M111.127 32.3557C109.013 32.3557 107.197 31.9818 105.681 31.234C104.165 30.4863 102.921 29.5151 101.949 28.3207C100.997 27.162 100.269 25.8366 99.8022 24.4119C99.3425 23.0025 99.1129 21.6356 99.1133 20.3112V19.6066C99.1152 18.1415 99.3533 16.6864 99.8186 15.2972C100.286 13.8804 101.026 12.5688 101.997 11.4363C102.979 10.2831 104.213 9.35931 105.699 8.66495C107.186 7.97059 108.942 7.62362 110.97 7.62402C113.084 7.62402 114.953 8.01914 116.576 8.8094C118.199 9.59966 119.497 10.6997 120.469 12.1094C121.44 13.5188 122.011 15.1527 122.183 17.0112H116.897C116.747 16.0712 116.4 15.2703 115.856 14.6083C115.303 13.9397 114.594 13.4172 113.792 13.0866C112.959 12.7338 112.019 12.5576 110.973 12.558C109.926 12.5584 108.997 12.7346 108.185 13.0866C107.395 13.423 106.697 13.9449 106.151 14.6083C105.588 15.3058 105.164 16.1051 104.902 16.9627C104.614 17.8707 104.469 18.8798 104.469 19.9902C104.469 21.0799 104.613 22.0785 104.902 22.9861C105.168 23.8533 105.603 24.6591 106.183 25.3569C106.749 26.0299 107.469 26.5571 108.281 26.8943C109.115 27.2467 110.066 27.423 111.134 27.423C112.757 27.423 114.129 27.0278 115.251 26.2376C116.373 25.4473 117.051 24.358 117.286 22.9697H122.539C122.357 24.6501 121.769 26.261 120.825 27.6633C119.875 29.084 118.583 30.2212 116.949 31.075C115.315 31.9288 113.374 32.3557 111.127 32.3557Z" fill="url(#paint17_linear_127_5185)"/>
<path d="M137.24 32.3556C135.126 32.3556 133.284 31.9817 131.714 31.2339C130.144 30.4862 128.847 29.5092 127.822 28.3029C126.827 27.1473 126.046 25.8237 125.515 24.3941C125.003 22.9957 124.746 21.6341 124.746 20.3093V19.6046C124.749 18.1329 125.015 16.6735 125.531 15.2952C126.061 13.8651 126.866 12.5532 127.902 11.4344C128.96 10.2812 130.262 9.35736 131.81 8.663C133.359 7.96864 135.169 7.62167 137.241 7.62207C139.291 7.62207 141.096 7.96904 142.655 8.663C144.214 9.35695 145.517 10.2808 146.564 11.4344C147.592 12.5588 148.397 13.8692 148.935 15.2952C149.46 16.6714 149.731 18.1315 149.735 19.6046V20.3093C149.735 21.6337 149.479 22.9953 148.967 24.3941C148.436 25.8237 147.655 27.1473 146.66 28.3029C145.635 29.5096 144.337 30.4866 142.768 31.2339C141.198 31.9813 139.356 32.3552 137.24 32.3556ZM137.24 27.4216C138.35 27.4216 139.349 27.2294 140.236 26.845C141.095 26.4797 141.865 25.9334 142.494 25.2433C143.118 24.5525 143.602 23.7474 143.92 22.8725C144.255 21.9484 144.424 20.9719 144.416 19.9888C144.416 18.8999 144.251 17.9015 143.92 16.9935C143.608 16.1172 143.117 15.3155 142.478 14.6391C141.838 13.9704 141.063 13.446 140.203 13.1011C139.317 12.7369 138.33 12.5548 137.24 12.5548C136.13 12.5548 135.136 12.7369 134.261 13.1011C133.408 13.4487 132.638 13.9729 132.002 14.6391C131.365 15.3135 130.879 16.1161 130.577 16.9935C130.256 17.9015 130.096 18.8999 130.096 19.9888C130.088 20.9706 130.251 21.9462 130.577 22.8725C130.886 23.7524 131.371 24.5601 132.002 25.2463C132.635 25.9321 133.404 26.4777 134.261 26.8481C135.137 27.2305 136.13 27.4216 137.24 27.4216Z" fill="url(#paint18_linear_127_5185)"/>
<path d="M151.113 13.6031V8.99023H169.565V13.6031H151.113ZM157.713 32.3769V12.9622H162.967V32.3769H157.713Z" fill="url(#paint19_linear_127_5185)"/>
<path d="M172.867 32.3769V8.79785H178.122V32.3769H172.867ZM176.712 24.8804V20.7495H182.478C183.247 20.7495 183.909 20.5945 184.464 20.2845C185.017 19.9784 185.472 19.5233 185.778 18.9711C186.098 18.4046 186.258 17.7586 186.258 17.0331C186.258 16.2642 186.098 15.5966 185.778 15.0301C185.471 14.4781 185.016 14.0231 184.464 13.7166C183.909 13.4071 183.247 13.2521 182.478 13.2517H176.712V8.79907H182.062C184.004 8.79907 185.692 9.09265 187.124 9.67978C188.556 10.2669 189.656 11.1425 190.424 12.3067C191.193 13.4712 191.577 14.9182 191.577 16.6476V17.1605C191.577 18.8904 191.187 20.3268 190.408 21.4699C189.628 22.613 188.528 23.4674 187.108 24.0331C185.688 24.5996 184.005 24.8828 182.062 24.8828L176.712 24.8804ZM187.06 32.3769L180.172 22.3172H185.971L193.149 32.3769H187.06Z" fill="url(#paint20_linear_127_5185)"/>
<path d="M194.043 32.3765L201.767 8.98926H210.256L218.268 32.3765H212.822L206.35 12.6419L208.016 13.3144H203.883L205.613 12.6419L199.301 32.3765H194.043ZM199.906 26.5777L201.507 22.2209H210.672L212.306 26.5777H199.906Z" fill="url(#paint21_linear_127_5185)"/>
<defs>
<linearGradient id="paint0_linear_127_5185" x1="19.9992" y1="21.8802" x2="19.9992" y2="55.4583" gradientUnits="userSpaceOnUse">
<stop stop-color="#E4B685" stop-opacity="0"/>
<stop offset="1" stop-color="#E1B482"/>
</linearGradient>
<linearGradient id="paint1_linear_127_5185" x1="19.8002" y1="112.134" x2="19.8002" y2="21.2465" gradientUnits="userSpaceOnUse">
<stop offset="0.738957" stop-color="#B86100"/>
<stop offset="1" stop-color="#E9AB71"/>
</linearGradient>
<linearGradient id="paint2_linear_127_5185" x1="6.20639" y1="13.1246" x2="6.20639" y2="4.69211" gradientUnits="userSpaceOnUse">
<stop stop-color="#006837"/>
<stop offset="1" stop-color="#008546"/>
</linearGradient>
<linearGradient id="paint3_linear_127_5185" x1="9.5141" y1="13.3655" x2="9.5141" y2="6.26413" gradientUnits="userSpaceOnUse">
<stop stop-color="#006837"/>
<stop offset="1" stop-color="#008546"/>
</linearGradient>
<linearGradient id="paint4_linear_127_5185" x1="14.9182" y1="14.2371" x2="14.9182" y2="1.80964" gradientUnits="userSpaceOnUse">
<stop stop-color="#006837"/>
<stop offset="1" stop-color="#008546"/>
</linearGradient>
<linearGradient id="paint5_linear_127_5185" x1="3.87197" y1="13.1241" x2="3.87197" y2="4.69168" gradientUnits="userSpaceOnUse">
<stop stop-color="#006837"/>
<stop offset="1" stop-color="#008546"/>
</linearGradient>
<linearGradient id="paint6_linear_127_5185" x1="18.0426" y1="13.1242" x2="18.0426" y2="4.69178" gradientUnits="userSpaceOnUse">
<stop stop-color="#006837"/>
<stop offset="1" stop-color="#008546"/>
</linearGradient>
<linearGradient id="paint7_linear_127_5185" x1="26.4206" y1="13.1246" x2="26.4206" y2="4.69213" gradientUnits="userSpaceOnUse">
<stop stop-color="#006837"/>
<stop offset="1" stop-color="#008546"/>
</linearGradient>
<linearGradient id="paint8_linear_127_5185" x1="35.5261" y1="13.1239" x2="35.5261" y2="4.69143" gradientUnits="userSpaceOnUse">
<stop stop-color="#006837"/>
<stop offset="1" stop-color="#008546"/>
</linearGradient>
<linearGradient id="paint9_linear_127_5185" x1="19.3782" y1="12.3349" x2="19.3782" y2="3.90248" gradientUnits="userSpaceOnUse">
<stop stop-color="#006837"/>
<stop offset="1" stop-color="#008546"/>
</linearGradient>
<linearGradient id="paint10_linear_127_5185" x1="11.8229" y1="13.124" x2="11.8229" y2="4.69154" gradientUnits="userSpaceOnUse">
<stop stop-color="#006837"/>
<stop offset="1" stop-color="#008546"/>
</linearGradient>
<linearGradient id="paint11_linear_127_5185" x1="25.085" y1="13.1243" x2="25.085" y2="4.6918" gradientUnits="userSpaceOnUse">
<stop stop-color="#006837"/>
<stop offset="1" stop-color="#008546"/>
</linearGradient>
<linearGradient id="paint12_linear_127_5185" x1="31.8215" y1="13.1237" x2="31.8215" y2="4.69123" gradientUnits="userSpaceOnUse">
<stop stop-color="#006837"/>
<stop offset="1" stop-color="#008546"/>
</linearGradient>
<linearGradient id="paint13_linear_127_5185" x1="84.0457" y1="17.3281" x2="84.0457" y2="34.6015" gradientUnits="userSpaceOnUse">
<stop stop-color="#E4B685" stop-opacity="0"/>
<stop offset="1" stop-color="#E1B482"/>
</linearGradient>
<linearGradient id="paint14_linear_127_5185" x1="137.397" y1="17.3281" x2="137.397" y2="34.6015" gradientUnits="userSpaceOnUse">
<stop stop-color="#E4B685" stop-opacity="0"/>
<stop offset="1" stop-color="#E1B482"/>
</linearGradient>
<linearGradient id="paint15_linear_127_5185" x1="59.4196" y1="8.51948" x2="59.4196" y2="41.035" gradientUnits="userSpaceOnUse">
<stop stop-color="#006837"/>
<stop offset="1" stop-color="#E0B281"/>
</linearGradient>
<linearGradient id="paint16_linear_127_5185" x1="83.9287" y1="8.51855" x2="83.9287" y2="41.0357" gradientUnits="userSpaceOnUse">
<stop stop-color="#006837"/>
<stop offset="1" stop-color="#E0B281"/>
</linearGradient>
<linearGradient id="paint17_linear_127_5185" x1="110.823" y1="8.52043" x2="110.823" y2="41.0352" gradientUnits="userSpaceOnUse">
<stop stop-color="#006837"/>
<stop offset="1" stop-color="#E0B281"/>
</linearGradient>
<linearGradient id="paint18_linear_127_5185" x1="137.237" y1="8.51855" x2="137.237" y2="41.0357" gradientUnits="userSpaceOnUse">
<stop stop-color="#006837"/>
<stop offset="1" stop-color="#E0B281"/>
</linearGradient>
<linearGradient id="paint19_linear_127_5185" x1="160.337" y1="9.83789" x2="160.337" y2="40.5844" gradientUnits="userSpaceOnUse">
<stop stop-color="#006837"/>
<stop offset="1" stop-color="#E0B281"/>
</linearGradient>
<linearGradient id="paint20_linear_127_5185" x1="183.005" y1="9.65249" x2="183.005" y2="40.6519" gradientUnits="userSpaceOnUse">
<stop stop-color="#006837"/>
<stop offset="1" stop-color="#E0B281"/>
</linearGradient>
<linearGradient id="paint21_linear_127_5185" x1="206.152" y1="9.83694" x2="206.152" y2="40.5842" gradientUnits="userSpaceOnUse">
<stop stop-color="#006837"/>
<stop offset="1" stop-color="#E0B281"/>
</linearGradient>
</defs>
</svg>
