<svg width="3597" height="660" viewBox="0 0 3597 660" fill="none" xmlns="http://www.w3.org/2000/svg">
<path d="M329.5 659C511.478 659 659 511.478 659 329.5C659 147.522 511.478 0 329.5 0C147.522 0 0 147.522 0 329.5C0 511.478 147.522 659 329.5 659Z" fill="url(#paint0_linear_203_2297)"/>
<path d="M614.811 303.41C613.524 297.59 612.064 291.837 610.431 286.15L540.811 276.79L565.811 248L549.811 240L438.811 308H439.251L404.251 330H402.621L433.371 256.32L542.781 220V207L484.781 213C488.114 203.327 491.448 193.66 494.781 184L479.781 185L458.781 217L412.781 223L357.171 303.29C355.344 292.763 353.518 282.234 351.691 271.7L385.781 202L375.781 193L344.881 232.43L339.781 203H311.781L302.391 303.29L264.781 248L194.781 227L185.781 240L241.781 278C246.854 295.333 251.921 312.667 256.981 330H255.361L220.361 308H220.801L161.801 271H161.561L101.801 233L89.8008 250L118.801 276.79L37.8008 285C37.6002 287.997 37.6002 291.003 37.8008 294C37.976 296.684 38.3099 299.355 38.8008 302L152.161 306.21L238.871 382.59C220.238 463.39 201.614 544.193 183.001 625C190.851 628.66 201.361 633.28 214.001 638C227.408 643.114 241.097 647.454 255.001 651C287.181 658.94 313.651 659 329.781 659C354.42 659.274 379.002 656.588 403.001 651C417.253 647.529 431.28 643.188 445.001 638C457.541 633.35 468.001 628.75 476.001 625L420.711 382.59L507.411 306.21L614.811 303.41Z" fill="url(#paint1_linear_203_2297)"/>
<path d="M102.279 186C118.019 186 130.779 173.24 130.779 157.5C130.779 141.76 118.019 129 102.279 129C86.5392 129 73.7793 141.76 73.7793 157.5C73.7793 173.24 86.5392 186 102.279 186Z" fill="url(#paint2_linear_203_2297)"/>
<path d="M156.779 220C165.616 220 172.779 212.837 172.779 204C172.779 195.163 165.616 188 156.779 188C147.943 188 140.779 195.163 140.779 204C140.779 212.837 147.943 220 156.779 220Z" fill="url(#paint3_linear_203_2297)"/>
<path d="M245.779 218C261.243 218 273.779 205.464 273.779 190C273.779 174.536 261.243 162 245.779 162C230.315 162 217.779 174.536 217.779 190C217.779 205.464 230.315 218 245.779 218Z" fill="url(#paint4_linear_203_2297)"/>
<path d="M63.7793 242C74.2727 242 82.7793 233.493 82.7793 223C82.7793 212.507 74.2727 204 63.7793 204C53.2859 204 44.7793 212.507 44.7793 223C44.7793 233.493 53.2859 242 63.7793 242Z" fill="url(#paint5_linear_203_2297)"/>
<path d="M297.279 61C314.124 61 327.779 47.3447 327.779 30.5C327.779 13.6553 314.124 0 297.279 0C280.435 0 266.779 13.6553 266.779 30.5C266.779 47.3447 280.435 61 297.279 61Z" fill="url(#paint6_linear_203_2297)"/>
<path d="M435.279 191C448.81 191 459.779 180.031 459.779 166.5C459.779 152.969 448.81 142 435.279 142C421.748 142 410.779 152.969 410.779 166.5C410.779 180.031 421.748 191 435.279 191Z" fill="url(#paint7_linear_203_2297)"/>
<path d="M585.279 235C598.81 235 609.779 224.031 609.779 210.5C609.779 196.969 598.81 186 585.279 186C571.748 186 560.779 196.969 560.779 210.5C560.779 224.031 571.748 235 585.279 235Z" fill="url(#paint8_linear_203_2297)"/>
<path d="M319.279 170C342.199 170 360.779 151.42 360.779 128.5C360.779 105.58 342.199 87 319.279 87C296.359 87 277.779 105.58 277.779 128.5C277.779 151.42 296.359 170 319.279 170Z" fill="url(#paint9_linear_203_2297)"/>
<path d="M194.779 155C226.26 155 251.779 129.48 251.779 98C251.779 66.5198 226.26 41 194.779 41C163.299 41 137.779 66.5198 137.779 98C137.779 129.48 163.299 155 194.779 155Z" fill="url(#paint10_linear_203_2297)"/>
<path d="M413.279 118C442.274 118 465.779 94.4949 465.779 65.5C465.779 36.5051 442.274 13 413.279 13C384.284 13 360.779 36.5051 360.779 65.5C360.779 94.4949 384.284 118 413.279 118Z" fill="url(#paint11_linear_203_2297)"/>
<path d="M524.279 170C546.647 170 564.779 151.868 564.779 129.5C564.779 107.132 546.647 89 524.279 89C501.912 89 483.779 107.132 483.779 129.5C483.779 151.868 501.912 170 524.279 170Z" fill="url(#paint12_linear_203_2297)"/>
<path d="M1385.5 486C1479.11 486 1555 410.112 1555 316.5C1555 222.888 1479.11 147 1385.5 147C1291.89 147 1216 222.888 1216 316.5C1216 410.112 1291.89 486 1385.5 486Z" fill="url(#paint13_linear_203_2297)"/>
<path d="M2264.5 486C2358.11 486 2434 410.112 2434 316.5C2434 222.888 2358.11 147 2264.5 147C2170.89 147 2095 222.888 2095 316.5C2095 410.112 2170.89 486 2264.5 486Z" fill="url(#paint14_linear_203_2297)"/>
<path d="M981.389 522.13C946.549 522.13 917.166 516.5 893.239 505.24C869.312 493.98 851.102 478.76 838.609 459.58C826.122 440.4 819.876 418.32 819.869 393.34H904.329C904.296 403.092 907.142 412.637 912.509 420.78C917.956 429.233 926.312 436.007 937.579 441.1C948.846 446.193 963.449 448.746 981.389 448.76C997.569 448.76 1011.12 446.647 1022.03 442.42C1032.94 438.193 1041.21 432.3 1046.84 424.74C1052.46 417.203 1055.44 408.014 1055.29 398.61C1055.29 386.303 1050.01 376.54 1039.45 369.32C1028.89 362.1 1011.82 357.433 988.249 355.32L959.249 353.21C920.889 349.697 890.276 337.643 867.409 317.05C844.543 296.456 833.096 269.107 833.069 235C833.069 210.013 838.962 188.547 850.749 170.6C862.536 152.653 878.989 138.843 900.109 129.17C921.222 119.49 946.222 114.65 975.109 114.65C1005.37 114.65 1031.32 119.93 1052.96 130.49C1074.6 141.05 1091.23 155.74 1102.84 174.56C1114.46 193.387 1120.27 215.29 1120.26 240.27H1035.81C1035.89 231.107 1033.52 222.089 1028.95 214.15C1024.37 206.23 1017.59 199.897 1008.62 195.15C999.646 190.403 988.476 188.03 975.109 188.03C962.442 188.03 951.796 190.053 943.169 194.1C934.543 198.147 928.106 203.78 923.859 211C919.616 218.28 917.425 226.574 917.519 235C917.519 245.553 921.392 254.887 929.139 263C936.886 271.113 949.552 275.863 967.139 277.25L996.699 279.89C1024.85 282.357 1049.65 288.427 1071.12 298.1C1092.59 307.773 1109.39 320.97 1121.53 337.69C1133.67 354.41 1139.74 374.743 1139.74 398.69C1139.74 423.357 1133.32 445 1120.47 463.62C1107.62 482.24 1089.41 496.667 1065.84 506.9C1042.27 517.047 1014.12 522.123 981.389 522.13Z" fill="url(#paint15_linear_203_2297)"/>
<path d="M1383.59 522.13C1348.76 522.13 1318.43 515.97 1292.59 503.65C1266.75 491.33 1245.37 475.233 1228.46 455.36C1212.06 436.323 1199.2 414.515 1190.46 390.96C1182.01 367.92 1177.79 345.487 1177.79 323.66V312.05C1177.84 287.802 1182.22 263.759 1190.72 241.05C1199.44 217.488 1212.71 195.873 1229.78 177.44C1247.2 158.44 1268.66 143.22 1294.17 131.78C1319.68 120.34 1349.5 114.623 1383.64 114.63C1417.42 114.63 1447.16 120.346 1472.85 131.78C1498.54 143.213 1520.01 158.433 1537.24 177.44C1554.19 195.966 1567.44 217.555 1576.3 241.05C1584.96 263.722 1589.43 287.779 1589.5 312.05V323.66C1589.5 345.48 1585.28 367.913 1576.83 390.96C1568.09 414.513 1555.22 436.32 1538.83 455.36C1521.93 475.24 1500.55 491.337 1474.69 503.65C1448.83 515.963 1418.46 522.123 1383.59 522.13ZM1383.59 440.84C1401.88 440.84 1418.34 437.673 1432.95 431.34C1447.11 425.32 1459.8 416.319 1470.16 404.95C1480.43 393.566 1488.41 380.303 1493.65 365.89C1499.18 350.666 1501.95 334.577 1501.83 318.38C1501.83 300.44 1499.1 283.99 1493.65 269.03C1488.5 254.592 1480.41 241.383 1469.89 230.24C1459.34 219.225 1446.57 210.585 1432.42 204.9C1417.81 198.9 1401.53 195.9 1383.59 195.9C1365.29 195.9 1348.93 198.9 1334.5 204.9C1320.45 210.629 1307.77 219.265 1297.29 230.24C1286.79 241.342 1278.78 254.556 1273.8 269C1268.53 283.96 1265.9 300.41 1265.89 318.35C1265.77 334.524 1268.45 350.597 1273.8 365.86C1278.9 380.339 1286.89 393.629 1297.29 404.92C1307.72 416.216 1320.39 425.206 1334.5 431.31C1348.93 437.663 1365.3 440.84 1383.59 440.84Z" fill="url(#paint16_linear_203_2297)"/>
<path d="M1831.72 522.13C1796.88 522.13 1766.97 515.97 1741.99 503.65C1717.01 491.33 1696.51 475.33 1680.5 455.65C1664.82 436.561 1652.83 414.723 1645.13 391.25C1637.56 368.03 1633.77 345.51 1633.78 323.69V312.08C1633.81 287.943 1637.73 263.968 1645.4 241.08C1653.1 217.738 1665.29 196.129 1681.29 177.47C1697.47 158.47 1717.8 143.25 1742.29 131.81C1766.78 120.37 1795.72 114.653 1829.12 114.66C1863.96 114.66 1894.75 121.17 1921.49 134.19C1948.23 147.21 1969.61 165.333 1985.63 188.56C2001.63 211.78 2011.04 238.7 2013.86 269.32H1926.77C1924.31 253.833 1918.59 240.637 1909.62 229.73C1900.51 218.715 1888.83 210.106 1875.62 204.66C1861.9 198.847 1846.42 195.944 1829.17 195.95C1811.92 195.957 1796.62 198.86 1783.25 204.66C1770.22 210.202 1758.73 218.801 1749.73 229.73C1740.45 241.222 1733.46 254.391 1729.15 268.52C1724.4 283.48 1722.03 300.107 1722.02 318.4C1722.02 336.353 1724.4 352.806 1729.15 367.76C1733.53 382.048 1740.71 395.324 1750.26 406.82C1759.59 417.908 1771.44 426.595 1784.83 432.15C1798.56 437.957 1814.23 440.86 1831.83 440.86C1858.57 440.86 1881.18 434.35 1899.66 421.33C1918.14 408.31 1929.31 390.364 1933.18 367.49H2019.74C2016.74 395.176 2007.05 421.715 1991.5 444.82C1975.84 468.226 1954.55 486.963 1927.63 501.03C1900.71 515.096 1868.74 522.13 1831.72 522.13Z" fill="url(#paint17_linear_203_2297)"/>
<path d="M2261.9 522.13C2227.06 522.13 2196.71 515.97 2170.85 503.65C2144.99 491.33 2123.61 475.233 2106.72 455.36C2090.33 436.32 2077.46 414.513 2068.72 390.96C2060.28 367.92 2056.06 345.487 2056.05 323.66V312.05C2056.1 287.802 2060.49 263.758 2068.99 241.05C2077.71 217.488 2090.98 195.873 2108.05 177.44C2125.47 158.44 2146.93 143.22 2172.44 131.78C2197.95 120.34 2227.77 114.623 2261.91 114.63C2295.69 114.63 2325.42 120.346 2351.11 131.78C2376.8 143.213 2398.26 158.433 2415.51 177.44C2432.46 195.966 2445.71 217.555 2454.57 241.05C2463.23 263.723 2467.7 287.78 2467.76 312.05V323.66C2467.76 345.48 2463.54 367.913 2455.1 390.96C2446.36 414.513 2433.49 436.32 2417.1 455.36C2400.21 475.24 2378.83 491.337 2352.97 503.65C2327.11 515.963 2296.75 522.123 2261.9 522.13ZM2261.9 440.84C2280.19 440.84 2296.64 437.673 2311.25 431.34C2325.41 425.322 2338.1 416.321 2348.46 404.95C2358.74 393.569 2366.71 380.305 2371.95 365.89C2377.48 350.666 2380.25 334.577 2380.13 318.38C2380.13 300.44 2377.4 283.99 2371.95 269.03C2366.81 254.593 2358.72 241.384 2348.2 230.24C2337.65 219.222 2324.87 210.583 2310.72 204.9C2296.12 198.9 2279.85 195.9 2261.9 195.9C2243.6 195.9 2227.24 198.9 2212.81 204.9C2198.76 210.627 2186.08 219.263 2175.6 230.24C2165.1 241.351 2157.09 254.575 2152.11 269.03C2146.83 283.99 2144.19 300.44 2144.19 318.38C2144.07 334.555 2146.75 350.629 2152.11 365.89C2157.2 380.387 2165.19 393.694 2175.6 405C2186.02 416.298 2198.7 425.288 2212.81 431.39C2227.24 437.69 2243.61 440.84 2261.9 440.84Z" fill="url(#paint18_linear_203_2297)"/>
<path d="M2490.46 213.17V137.17H2794.46V213.17H2490.46ZM2599.19 522.48V202.61H2685.75V522.48H2599.19Z" fill="url(#paint19_linear_203_2297)"/>
<path d="M2848.85 522.48V134H2935.42V522.48H2848.85ZM2912.19 398.97V330.91H3007.19C3019.86 330.91 3030.77 328.357 3039.92 323.25C3049.02 318.207 3056.52 310.709 3061.56 301.61C3066.84 292.277 3069.48 281.634 3069.48 269.68C3069.48 257.014 3066.84 246.014 3061.56 236.68C3056.51 227.586 3049.01 220.089 3039.92 215.04C3030.77 209.94 3019.86 207.387 3007.19 207.38H2912.19V134.02H3000.34C3032.34 134.02 3060.14 138.857 3083.74 148.53C3107.34 158.204 3125.46 172.63 3138.11 191.81C3150.78 210.997 3157.11 234.837 3157.11 263.33V271.78C3157.11 300.28 3150.69 323.947 3137.84 342.78C3124.99 361.614 3106.87 375.69 3083.48 385.01C3060.07 394.344 3032.36 399.01 3000.34 399.01L2912.19 398.97ZM3082.68 522.48L2969.2 356.74H3064.74L3183 522.48H3082.68Z" fill="url(#paint20_linear_203_2297)"/>
<path d="M3197.75 522.48L3325 137.16H3464.87L3596.87 522.48H3507.14L3400.52 197.34L3427.96 208.42H3359.87L3388.38 197.34L3284.38 522.48H3197.75ZM3294.34 426.94L3320.73 355.16H3471.73L3498.64 426.94H3294.34Z" fill="url(#paint21_linear_203_2297)"/>
<rect width="100" height="100" transform="translate(1472 424)" fill="white"/>
<defs>
<linearGradient id="paint0_linear_203_2297" x1="329.5" y1="360.49" x2="329.5" y2="913.71" gradientUnits="userSpaceOnUse">
<stop stop-color="#E4B685" stop-opacity="0"/>
<stop offset="1" stop-color="#E1B482"/>
</linearGradient>
<linearGradient id="paint1_linear_203_2297" x1="326.221" y1="1847.47" x2="326.221" y2="350.05" gradientUnits="userSpaceOnUse">
<stop stop-color="#C28B4D"/>
<stop offset="1" stop-color="#E9AB71"/>
</linearGradient>
<linearGradient id="paint2_linear_203_2297" x1="102.279" y1="216.23" x2="102.279" y2="77.3" gradientUnits="userSpaceOnUse">
<stop stop-color="#006837"/>
<stop offset="1" stop-color="#008546"/>
</linearGradient>
<linearGradient id="paint3_linear_203_2297" x1="156.779" y1="220.2" x2="156.779" y2="103.2" gradientUnits="userSpaceOnUse">
<stop stop-color="#006837"/>
<stop offset="1" stop-color="#008546"/>
</linearGradient>
<linearGradient id="paint4_linear_203_2297" x1="245.779" y1="234.56" x2="245.779" y2="29.81" gradientUnits="userSpaceOnUse">
<stop stop-color="#006837"/>
<stop offset="1" stop-color="#008546"/>
</linearGradient>
<linearGradient id="paint5_linear_203_2297" x1="63.7793" y1="216.23" x2="63.7793" y2="77.3" gradientUnits="userSpaceOnUse">
<stop stop-color="#006837"/>
<stop offset="1" stop-color="#008546"/>
</linearGradient>
<linearGradient id="paint6_linear_203_2297" x1="297.279" y1="216.23" x2="297.279" y2="77.3" gradientUnits="userSpaceOnUse">
<stop stop-color="#006837"/>
<stop offset="1" stop-color="#008546"/>
</linearGradient>
<linearGradient id="paint7_linear_203_2297" x1="435.279" y1="216.23" x2="435.279" y2="77.3" gradientUnits="userSpaceOnUse">
<stop stop-color="#006837"/>
<stop offset="1" stop-color="#008546"/>
</linearGradient>
<linearGradient id="paint8_linear_203_2297" x1="585.279" y1="216.23" x2="585.279" y2="77.3" gradientUnits="userSpaceOnUse">
<stop stop-color="#006837"/>
<stop offset="1" stop-color="#008546"/>
</linearGradient>
<linearGradient id="paint9_linear_203_2297" x1="319.279" y1="203.23" x2="319.279" y2="64.3" gradientUnits="userSpaceOnUse">
<stop stop-color="#006837"/>
<stop offset="1" stop-color="#008546"/>
</linearGradient>
<linearGradient id="paint10_linear_203_2297" x1="194.779" y1="216.23" x2="194.779" y2="77.3" gradientUnits="userSpaceOnUse">
<stop stop-color="#006837"/>
<stop offset="1" stop-color="#008546"/>
</linearGradient>
<linearGradient id="paint11_linear_203_2297" x1="413.279" y1="216.23" x2="413.279" y2="77.3" gradientUnits="userSpaceOnUse">
<stop stop-color="#006837"/>
<stop offset="1" stop-color="#008546"/>
</linearGradient>
<linearGradient id="paint12_linear_203_2297" x1="524.279" y1="216.23" x2="524.279" y2="77.3" gradientUnits="userSpaceOnUse">
<stop stop-color="#006837"/>
<stop offset="1" stop-color="#008546"/>
</linearGradient>
<linearGradient id="paint13_linear_203_2297" x1="1385.5" y1="274.54" x2="1385.5" y2="559.13" gradientUnits="userSpaceOnUse">
<stop stop-color="#E4B685" stop-opacity="0"/>
<stop offset="1" stop-color="#E1B482"/>
</linearGradient>
<linearGradient id="paint14_linear_203_2297" x1="2264.5" y1="274.54" x2="2264.5" y2="559.13" gradientUnits="userSpaceOnUse">
<stop stop-color="#E4B685" stop-opacity="0"/>
<stop offset="1" stop-color="#E1B482"/>
</linearGradient>
<linearGradient id="paint15_linear_203_2297" x1="979.809" y1="129.4" x2="979.809" y2="665.14" gradientUnits="userSpaceOnUse">
<stop stop-color="#006837"/>
<stop offset="1" stop-color="#E0B281"/>
</linearGradient>
<linearGradient id="paint16_linear_203_2297" x1="1383.59" y1="129.4" x2="1383.59" y2="665.14" gradientUnits="userSpaceOnUse">
<stop stop-color="#006837"/>
<stop offset="1" stop-color="#E0B281"/>
</linearGradient>
<linearGradient id="paint17_linear_203_2297" x1="1826.71" y1="129.4" x2="1826.71" y2="665.14" gradientUnits="userSpaceOnUse">
<stop stop-color="#006837"/>
<stop offset="1" stop-color="#E0B281"/>
</linearGradient>
<linearGradient id="paint18_linear_203_2297" x1="2261.9" y1="129.4" x2="2261.9" y2="665.14" gradientUnits="userSpaceOnUse">
<stop stop-color="#006837"/>
<stop offset="1" stop-color="#E0B281"/>
</linearGradient>
<linearGradient id="paint19_linear_203_2297" x1="2642.47" y1="140.31" x2="2642.47" y2="676.05" gradientUnits="userSpaceOnUse">
<stop stop-color="#006837"/>
<stop offset="1" stop-color="#E0B281"/>
</linearGradient>
<linearGradient id="paint20_linear_203_2297" x1="3015.91" y1="140.31" x2="3015.91" y2="676.05" gradientUnits="userSpaceOnUse">
<stop stop-color="#006837"/>
<stop offset="1" stop-color="#E0B281"/>
</linearGradient>
<linearGradient id="paint21_linear_203_2297" x1="3397.27" y1="140.31" x2="3397.27" y2="676.05" gradientUnits="userSpaceOnUse">
<stop stop-color="#006837"/>
<stop offset="1" stop-color="#E0B281"/>
</linearGradient>
</defs>
</svg>
